<svg width="12" height="11" viewBox="0 0 12 11" fill="none" xmlns="http://www.w3.org/2000/svg">
<path d="M5.57397 11C5.47748 11 5.38702 10.9854 5.30259 10.9562C5.21816 10.927 5.13976 10.8769 5.0674 10.8058L0.29108 6.14446C0.146343 6.0032 0.0739746 5.83559 0.0739746 5.6416C0.0739746 5.44761 0.146343 5.27976 0.29108 5.13804C0.435816 4.99678 0.604676 4.92616 0.797659 4.92616C0.990641 4.92616 1.1595 4.99678 1.30424 5.13804L4.85029 8.59871V0.688603C4.85029 0.488496 4.91976 0.323702 5.05871 0.194221C5.19766 0.0647405 5.36941 0 5.57397 0C5.77902 0 5.95101 0.067801 6.08996 0.203403C6.22891 0.339005 6.29814 0.506623 6.29766 0.706259V8.59871L9.84371 5.13804C9.98845 4.99678 10.1573 4.92616 10.3503 4.92616C10.5433 4.92616 10.7121 4.99678 10.8569 5.13804C11.0016 5.27929 11.074 5.44714 11.074 5.6416C11.074 5.83606 11.0016 6.00367 10.8569 6.14446L6.08055 10.8058C6.00818 10.8764 5.92979 10.9265 5.84536 10.9562C5.76093 10.9859 5.67047 11.0005 5.57397 11Z" fill="#F37B7B"/>
</svg>
