<svg width="12" height="11" viewBox="0 0 12 11" fill="none" xmlns="http://www.w3.org/2000/svg">
<path d="M6.03491 1.04904e-05C5.93842 1.04904e-05 5.84796 0.0146065 5.76353 0.0437994C5.6791 0.0729914 5.6007 0.123137 5.52833 0.194233L0.752017 4.85554C0.60728 4.9968 0.534912 5.16441 0.534912 5.3584C0.534912 5.55239 0.60728 5.72024 0.752017 5.86196C0.896754 6.00322 1.06561 6.07384 1.2586 6.07384C1.45158 6.07384 1.62044 6.00322 1.76518 5.86196L5.31123 2.40129V10.3114C5.31123 10.5115 5.3807 10.6763 5.51965 10.8058C5.6586 10.9353 5.83035 11 6.03491 11C6.23996 11 6.41195 10.9322 6.5509 10.7966C6.68985 10.661 6.75908 10.4934 6.7586 10.2937V2.40129L10.3046 5.86196C10.4494 6.00322 10.6182 6.07384 10.8112 6.07384C11.0042 6.07384 11.1731 6.00322 11.3178 5.86196C11.4625 5.72071 11.5349 5.55286 11.5349 5.3584C11.5349 5.16394 11.4625 4.99633 11.3178 4.85554L6.54149 0.194233C6.46912 0.123608 6.39072 0.0734615 6.30629 0.0437994C6.22186 0.0141363 6.1314 -0.000459671 6.03491 1.04904e-05Z" fill="#92BD9B"/>
</svg>
