<svg width="82" height="94" viewBox="0 0 82 94" fill="none" xmlns="http://www.w3.org/2000/svg">
<path d="M81.625 9.99219C81.6003 7.42252 80.5638 4.96613 78.7401 3.15561C76.9164 1.34508 74.4526 0.326362 71.8828 0.320312L10.0703 0.125C7.50317 0.125508 5.04097 1.14392 3.22353 2.95697C1.40609 4.77002 0.381722 7.22974 0.375 9.79687V73.5625C0.375 78.8945 4.72656 82.9375 10.0703 82.9375H62.875L60.3359 74.3438L81.625 93.875V9.99219ZM54.4082 61.416C54.4082 61.416 52.7051 59.3867 51.2832 57.6426C57.4824 55.8965 59.8477 52.0781 59.8477 52.0781C58.145 53.2076 56.3203 54.1412 54.4082 54.8613C52.2005 55.778 49.9018 56.4582 47.5508 56.8906C43.4999 57.6347 39.3459 57.6188 35.3008 56.8437C32.9214 56.4019 30.5926 55.7213 28.3496 54.8125C27.1631 54.358 26.0093 53.8223 24.8965 53.209C24.7539 53.1152 24.6133 53.0684 24.4707 52.9727C24.375 52.9258 24.3281 52.8789 24.2754 52.8789C23.4238 52.4063 22.9512 52.0762 22.9512 52.0762C22.9512 52.0762 25.2207 55.8047 31.2285 57.5957C29.8086 59.3887 28.0586 61.4648 28.0586 61.4648C17.6074 61.1348 13.6348 54.3418 13.6348 54.3418C13.6348 39.291 20.4453 27.0723 20.4453 27.0723C27.2559 22.0234 33.6875 22.166 33.6875 22.166L34.1602 22.7324C25.6465 25.1387 21.7695 28.8652 21.7695 28.8652C21.7695 28.8652 22.8086 28.2988 24.5586 27.543C29.6191 25.3262 33.6406 24.7598 35.3008 24.5723C35.5657 24.5172 35.835 24.4852 36.1055 24.4766C39.2746 24.0653 42.4816 24.0339 45.6582 24.3828C50.646 24.9558 55.4782 26.4772 59.8945 28.8652C59.8945 28.8652 56.1582 25.3203 48.1172 22.918L48.7793 22.1641C48.7793 22.1641 55.2578 22.0215 62.0234 27.0781C62.0234 27.0781 68.834 39.2969 68.834 54.3477C68.834 54.293 64.8594 61.0859 54.4082 61.416Z" fill="black"/>
<path d="M32.416 39.5781C29.7207 39.5781 27.5918 41.8906 27.5918 44.7676C27.5918 47.6445 29.7676 49.957 32.416 49.957C35.1113 49.957 37.2402 47.6465 37.2402 44.7676C37.2891 41.8848 35.1113 39.5781 32.416 39.5781ZM49.6777 39.5781C46.9824 39.5781 44.8535 41.8906 44.8535 44.7676C44.8535 47.6445 47.0293 49.957 49.6777 49.957C52.375 49.957 54.502 47.6465 54.502 44.7676C54.502 41.8887 52.3281 39.5781 49.6777 39.5781Z" fill="black"/>
</svg>
