<svg width="105" height="105" viewBox="0 0 105 105" fill="none" xmlns="http://www.w3.org/2000/svg">
<path fill-rule="evenodd" clip-rule="evenodd" d="M105 52.5C105 81.4931 81.4931 105 52.5 105C23.5069 105 0 81.4931 0 52.5C0 23.5069 23.5069 0 52.5 0C81.4931 0 105 23.5069 105 52.5ZM54.3813 38.7581C49.2756 40.88 39.0687 45.2769 23.765 51.9444C21.28 52.9331 19.9762 53.9 19.8581 54.845C19.6569 56.4463 21.6606 57.0763 24.3819 57.9294C24.7537 58.0475 25.1388 58.1656 25.5325 58.2969C28.2144 59.1675 31.8194 60.1869 33.6919 60.2262C35.3937 60.2612 37.2925 59.5613 39.3881 58.1263C53.6856 48.4706 61.0662 43.5925 61.53 43.4875C61.8581 43.4131 62.3131 43.3169 62.6194 43.5925C62.9256 43.8638 62.895 44.38 62.8644 44.52C62.6631 45.3644 54.8144 52.6663 50.7456 56.4463C49.4769 57.6231 48.58 58.4588 48.3963 58.6512C47.985 59.0756 47.565 59.4825 47.1625 59.8719C44.6688 62.2694 42.805 64.0719 47.2675 67.0119C49.4113 68.425 51.1262 69.5931 52.8369 70.7569C54.705 72.03 56.5688 73.2987 58.9838 74.8825C59.5963 75.285 60.1825 75.7006 60.7556 76.1075C62.93 77.6606 64.8856 79.0519 67.3006 78.8331C68.7006 78.7019 70.1531 77.385 70.8881 73.4519C72.625 64.1506 76.0462 44.0081 76.8381 35.7044C76.8863 35.0149 76.857 34.3223 76.7506 33.6394C76.687 33.0878 76.4184 32.5803 75.9981 32.2175C75.3725 31.7056 74.4013 31.5963 73.9638 31.605C71.9906 31.64 68.9631 32.6944 54.3813 38.7581Z" fill="black"/>
</svg>
