<svg width="98" height="76" viewBox="0 0 98 76" fill="none" xmlns="http://www.w3.org/2000/svg">
<path d="M94.6887 12.8719C94.2838 11.2878 93.5081 9.82275 92.4255 8.5975C91.343 7.37225 89.9846 6.42195 88.4625 5.82502C73.7328 0.135954 50.2891 0.187516 49 0.187516C47.7109 0.187516 24.2672 0.135954 9.5375 5.82502C8.01539 6.42195 6.65702 7.37225 5.57447 8.5975C4.49192 9.82275 3.7162 11.2878 3.31133 12.8719C2.19844 17.1602 0.875 24.9977 0.875 38C0.875 51.0024 2.19844 58.8399 3.31133 63.1281C3.7156 64.713 4.49104 66.1789 5.57362 67.405C6.65621 68.631 8.01489 69.5819 9.5375 70.1793C23.6484 75.6234 45.7344 75.8125 48.7164 75.8125H49.2836C52.2656 75.8125 74.3644 75.6234 88.4625 70.1793C89.9851 69.5819 91.3438 68.631 92.4264 67.405C93.509 66.1789 94.2844 64.713 94.6887 63.1281C95.8016 58.8313 97.125 51.0024 97.125 38C97.125 24.9977 95.8016 17.1602 94.6887 12.8719ZM63.7039 39.4309L43.0789 53.1809C42.82 53.3536 42.519 53.4528 42.2082 53.4679C41.8973 53.4829 41.5882 53.4133 41.3138 53.2664C41.0394 53.1195 40.81 52.9008 40.6502 52.6338C40.4904 52.3667 40.406 52.0613 40.4062 51.75V24.25C40.406 23.9388 40.4904 23.6333 40.6502 23.3663C40.81 23.0992 41.0394 22.8805 41.3138 22.7336C41.5882 22.5867 41.8973 22.5171 42.2082 22.5322C42.519 22.5472 42.82 22.6464 43.0789 22.8192L63.7039 36.5692C63.9397 36.726 64.133 36.9388 64.2667 37.1884C64.4005 37.438 64.4704 37.7168 64.4704 38C64.4704 38.2832 64.4005 38.562 64.2667 38.8116C64.133 39.0613 63.9397 39.274 63.7039 39.4309Z" fill="#111111"/>
</svg>
