<svg width="11" height="19" viewBox="0 0 11 19" fill="none" xmlns="http://www.w3.org/2000/svg">
<path d="M2.14959 18.575L10.5746 10.175C10.6746 10.075 10.7456 9.96667 10.7876 9.85C10.8296 9.73333 10.8503 9.60833 10.8496 9.475C10.8496 9.34167 10.8286 9.21667 10.7866 9.1C10.7446 8.98333 10.6739 8.875 10.5746 8.775L2.14959 0.35C1.91626 0.116667 1.62459 0 1.27459 0C0.924593 0 0.624594 0.125 0.374594 0.375C0.124594 0.625 -0.000406265 0.916667 -0.000406265 1.25C-0.000406265 1.58333 0.124594 1.875 0.374594 2.125L7.72459 9.475L0.374594 16.825C0.14126 17.0583 0.0245934 17.346 0.0245934 17.688C0.0245934 18.03 0.149593 18.3257 0.399593 18.575C0.649593 18.825 0.94126 18.95 1.27459 18.95C1.60793 18.95 1.89959 18.825 2.14959 18.575Z" fill="#C1C1C1"/>
</svg>
